HIERARCHY
ROOT Hips
{
	OFFSET -3.958830 18.904000 13.208200
	CHANNELS 6 Xposition Yposition Zposition Zrotation Yrotation Xrotation 
	JOINT LHipJoint
	{
		OFFSET 0.000000 0.000000 0.000000
		CHANNELS 3 Zrotation Yrotation Xrotation
		JOINT LeftUpLeg
		{
			OFFSET 1.800000 -1.400000 0.085000
			CHANNELS 3 Zrotation Yrotation Xrotation
			JOINT LeftLeg
			{
				OFFSET 2.215000 -6.000000 0.000000
				CHANNELS 3 Zrotation Yrotation Xrotation
				JOINT LeftFoot
				{
					OFFSET 2.500000 -6.900000 0.000000
					CHANNELS 3 Zrotation Yrotation Xrotation
					JOINT LeftToeBase
					{
						OFFSET 0.200000 -0.500000 1.950000
						CHANNELS 3 Zrotation Yrotation Xrotation
						End Site
						{
							OFFSET 0.000000 0.000000 0.000000
						}
					}
				}
			}
		}
	}
	JOINT RHipJoint
	{
		OFFSET 0.000000 0.000000 0.000000
		CHANNELS 3 Zrotation Yrotation Xrotation
		JOINT RightUpLeg
		{
			OFFSET -1.800000 -1.400000 0.085000
			CHANNELS 3 Zrotation Yrotation Xrotation
			JOINT RightLeg
			{
				OFFSET -2.215000 -6.000000 0.000000
				CHANNELS 3 Zrotation Yrotation Xrotation
				JOINT RightFoot
				{
					OFFSET -2.500000 -6.900000 0.000000
					CHANNELS 3 Zrotation Yrotation Xrotation
					JOINT RightToeBase
					{
						OFFSET -0.200000 -0.500000 1.950000
						CHANNELS 3 Zrotation Yrotation Xrotation
						End Site
						{
							OFFSET 0.000000 0.000000 0.000000
						}
					}
				}
			}
		}
	}
	JOINT LowerBack
	{
		OFFSET 0.000000 0.000000 0.000000
		CHANNELS 3 Zrotation Yrotation Xrotation
		JOINT Spine
		{
			OFFSET -0.087000 1.940000 -0.288900
			CHANNELS 3 Zrotation Yrotation Xrotation
			JOINT Spine1
			{
				OFFSET 0.000000 1.950000 0.060000
				CHANNELS 3 Zrotation Yrotation Xrotation
				JOINT Neck
				{
					OFFSET 0.000000 0.000000 0.000000
					CHANNELS 3 Zrotation Yrotation Xrotation
					JOINT Neck1
					{
						OFFSET 0.000000 1.600000 0.340000
						CHANNELS 3 Zrotation Yrotation Xrotation
						JOINT Head
						{
							OFFSET 0.000000 1.667000 -0.240000
							CHANNELS 3 Zrotation Yrotation Xrotation
							End Site
							{
								OFFSET 0.000000 0.000000 0.000000
							}
						}
					}
				}
				JOINT LeftShoulder
				{
					OFFSET 0.000000 0.000000 0.000000
					CHANNELS 3 Zrotation Yrotation Xrotation
					JOINT LeftArm
					{
						OFFSET 2.700000 1.550000 -0.730000
						CHANNELS 3 Zrotation Yrotation Xrotation
						JOINT LeftForeArm
						{
							OFFSET 5.450000 0.000000 0.000000
							CHANNELS 3 Zrotation Yrotation Xrotation
							JOINT LeftHand
							{
								OFFSET 3.450000 0.000000 0.000000
								CHANNELS 3 Zrotation Yrotation Xrotation
								JOINT LeftHandIndex1
								{
									OFFSET 0.750000 0.000000 0.000000
									CHANNELS 3 Zrotation Yrotation Xrotation
									End Site
									{
										OFFSET 0.000000 0.000000 0.000000
									}
								}
							}
						}
					}
				}
				JOINT RightShoulder
				{
					OFFSET 0.000000 0.000000 0.000000
					CHANNELS 3 Zrotation Yrotation Xrotation
					JOINT RightArm
					{
						OFFSET -2.700000 1.550000 -0.730000
						CHANNELS 3 Zrotation Yrotation Xrotation
						JOINT RightForeArm
						{
							OFFSET -5.450000 0.000000 0.000000
							CHANNELS 3 Zrotation Yrotation Xrotation
							JOINT RightHand
							{
								OFFSET -3.450000 0.000000 0.000000
								CHANNELS 3 Zrotation Yrotation Xrotation
								JOINT RightHandIndex1
								{
									OFFSET -0.750000 0.000000 0.000000
									CHANNELS 3 Zrotation Yrotation Xrotation
									End Site
									{
										OFFSET 0.000000 0.000000 0.000000
									}
								}
							}
						}
					}
				}
			}
		}
	}
}
MOTION
Frames: 13
Frame Time: 0.016667
1.251800 16.098300 -1.398690 -2.755191 12.083089 1.890108 -15.328036 12.607885 3.391729 1.601581 -6.469896 -28.820431 1.058275 5.864282 36.744981 -0.874831 5.971986 2.219534 0.425210 0.225990 0.416490 18.290761 -9.049351 4.335298 -2.514549 6.956977 -41.340994 5.335602 -1.195269 -3.412396 -0.010666 -0.904836 3.832041 0.319740 0.096060 0.103710 -3.560668 -2.585411 -8.569293 7.461476 -5.099525 20.359708 -10.552073 -2.088107 8.632481 6.408513 -4.151860 -10.306357 -9.000998 8.368587 36.297412 -3.002250 5.179500 -23.823150 -24.060860 -19.710207 3.938351 -52.679050 -16.383232 -3.859211 10.308957 -19.301914 -4.247995 -3.702023 2.586697 0.910170 -0.064570 0.183860 -0.009050 11.330983 23.495150 6.441918 70.347612 20.241402 -10.099638 -14.957084 28.194747 -6.958352 1.858316 -1.083159 -0.442470 0.529910 0.196600 -0.363220 
1.237130 16.094730 -1.399020 -3.534807 10.535920 2.023901 -15.288600 12.494169 3.320402 3.100917 -6.248174 -29.085676 -0.032069 6.510335 36.879009 -0.866867 6.170027 2.155943 0.413600 0.220270 0.405930 18.349796 -8.976006 4.421009 -2.821269 7.316483 -41.344955 6.021153 -0.891266 -5.690153 -0.020161 -0.997929 3.814380 0.328400 0.133690 0.097480 -3.676585 -2.432291 -8.581361 8.565139 -4.883242 19.930622 -10.974510 -1.639288 9.140721 6.304627 -4.131878 -10.402756 -8.911506 8.429397 35.536759 -2.823790 5.232360 -23.363290 -23.039870 -20.124087 4.040679 -52.963464 -17.081643 -3.489965 12.114144 -18.560848 -4.475263 -3.743298 2.560101 0.894070 -0.037380 0.165960 -0.001940 10.441236 23.699398 6.601185 71.178440 20.424540 -10.541670 -16.231450 29.248495 -7.645418 1.828758 -1.085626 -0.459860 0.560360 0.203530 -0.356370 
1.222230 16.102110 -1.406660 -4.513474 9.664697 1.932920 -15.268049 12.362705 3.247998 4.750173 -6.288372 -29.370178 -0.835948 7.000021 37.237976 -0.949549 6.498815 2.031954 0.358080 0.138230 0.386560 18.409938 -8.790451 4.494715 -4.642187 7.249422 -41.567122 6.615340 -0.526146 -8.667295 -0.011330 -1.244528 3.711466 0.344030 0.212380 0.104320 -3.771525 -2.468755 -8.562891 10.022600 -5.248047 19.258346 -11.366333 -1.698202 11.237426 6.073220 -4.270880 -10.949873 -9.219979 8.374725 33.358229 -3.535470 5.030280 -21.795580 -20.017553 -22.082550 4.747270 -53.241634 -18.551026 -2.835735 13.717712 -17.594323 -4.765205 -3.853247 2.540306 0.876500 0.039640 0.093660 -0.039410 7.859356 24.996483 7.199590 72.312251 20.881929 -12.104173 -17.260087 32.925194 -9.132769 1.733991 -1.094376 -0.530700 0.600680 0.280980 -0.383750 
1.201980 16.156450 -1.425200 -5.404129 10.037420 0.532713 -15.248490 12.533336 3.066271 5.557383 -5.939451 -27.763647 -0.326942 6.472308 35.672012 -1.063434 6.268629 2.105306 0.414500 0.230820 0.393130 18.414737 -8.907635 4.365077 -6.696677 6.274423 -41.268105 5.478369 -0.835621 -6.750412 0.008740 -1.348510 3.632725 0.443840 0.263940 0.134740 -3.815276 -2.588508 -8.326023 10.995651 -5.833834 18.928787 -11.254533 -2.043008 15.883903 5.638380 -4.409673 -12.101317 -9.655285 8.138218 31.174184 -3.439710 4.238630 -20.059000 -15.157754 -26.497649 6.506394 -52.793012 -21.220170 -2.499424 16.284169 -16.736960 -5.365482 -3.902568 2.634900 0.794820 0.113250 0.058430 -0.028330 3.968906 28.488931 8.269913 71.601376 22.050861 -13.992141 -17.547252 36.338078 -10.773417 1.639769 -1.202471 -0.517160 0.617770 0.285720 -0.360800 
1.174520 16.215070 -1.407260 -5.894395 11.943064 -0.339924 -15.188550 12.817798 2.953912 5.660914 -5.690254 -26.140642 0.651659 5.574418 33.110984 -1.123954 5.747176 2.337860 0.413730 0.242980 0.356250 18.430701 -9.235395 4.066167 -9.469647 4.537460 -41.456195 3.432718 -1.717661 -0.275102 0.054483 -1.373206 3.617855 0.456770 0.305810 0.123580 -3.958748 -2.715196 -8.039817 12.487071 -7.340956 18.966287 -11.564063 -3.352267 15.713708 4.311467 -4.567103 -11.731295 -10.217484 7.679829 30.188573 -3.072930 3.601800 -18.476400 -11.412550 -25.557921 6.361286 -53.149040 -23.008319 -0.852649 15.514252 -16.052763 -5.019899 -3.913955 2.672617 0.732830 0.143580 0.014560 0.003610 2.649588 26.210421 7.841803 72.913157 21.559751 -13.856674 -13.018359 39.411241 -10.044116 1.662860 -1.263098 -0.511560 0.617730 0.270090 -0.329400 
1.121670 16.285250 -1.374160 -6.218572 13.452509 -0.991292 -15.250676 13.216356 2.875704 6.192222 -5.196470 -24.603305 1.208982 4.973713 29.823267 -1.144951 5.264621 2.561963 0.326240 0.156910 0.290420 18.308169 -9.465019 3.788625 -11.809979 3.023855 -40.656781 2.433536 -2.508049 5.074349 0.099816 -1.635618 3.535592 0.401680 0.387000 0.166750 -3.722835 -3.171910 -7.862500 11.246391 -7.441480 19.328674 -9.563720 -4.247632 15.112001 3.781639 -3.664514 -11.269585 -8.414947 6.973827 28.891131 -4.410810 4.385390 -15.624410 -8.423258 -23.506940 5.805858 -54.143892 -24.895670 0.421621 15.289086 -16.651241 -5.069554 -4.024997 2.716867 0.623180 0.250690 -0.057720 -0.000570 0.723720 23.183993 7.533636 73.473675 20.175902 -13.597429 -6.258490 42.235012 -8.240633 1.688834 -1.368369 -0.497370 0.561350 0.297530 -0.304990 
1.041760 16.364640 -1.320760 -6.300626 14.609542 -0.192327 -15.249561 13.389440 2.861698 6.960909 -4.758249 -23.927396 0.565014 4.763821 25.466296 -1.129728 4.701218 2.832894 0.166570 -0.040020 0.174790 18.257627 -9.668442 3.645488 -14.223551 1.873017 -40.148263 2.225056 -3.259395 8.781855 0.125283 -1.939150 3.489300 0.245910 0.460450 0.169530 -3.682786 -3.268214 -7.847480 10.496380 -7.512732 18.965315 -8.156634 -4.955932 10.955557 3.141616 -2.622799 -10.399558 -6.530343 6.840518 29.910562 -4.465230 5.703370 -13.596350 -7.477706 -17.974618 4.499272 -54.888096 -23.654241 0.839956 11.289466 -21.286778 -4.794886 -4.065842 2.651045 0.601310 0.294940 -0.116920 -0.005210 1.107136 17.154458 6.427154 74.846072 17.591979 -11.474675 1.135197 40.963973 -4.858746 1.774704 -1.353175 -0.515450 0.520410 0.345960 -0.289730 
0.969680 16.447740 -1.267520 -7.045851 14.951919 0.088984 -15.216641 13.461737 2.870051 9.064874 -4.290783 -23.011742 -1.386801 5.102278 21.899883 -1.067104 4.498818 2.950792 0.024560 -0.223030 0.073460 18.234782 -9.901589 3.475520 -15.684611 1.259232 -38.341957 2.357864 -3.758540 10.820287 0.155201 -2.200026 3.433693 0.112260 0.522010 0.172100 -3.717528 -3.130410 -7.846795 10.705967 -7.375120 18.322413 -7.226242 -5.177138 8.392714 2.910340 -1.673343 -10.193903 -4.756033 6.577596 30.895385 -4.203100 6.664740 -10.542430 -6.845386 -14.375809 4.152160 -53.257793 -20.849690 -0.780549 4.548778 -29.376409 -3.990849 -4.059729 2.670343 0.566960 0.329670 -0.179750 -0.013400 0.977339 13.187455 5.889550 74.647957 15.039842 -10.291208 8.103668 39.234220 -2.087297 1.849506 -1.368427 -0.530390 0.465020 0.389480 -0.274290 
0.884420 16.525150 -1.231310 -8.316154 14.286690 0.895102 -15.193534 13.408822 2.923871 11.538685 -3.881285 -22.575774 -3.234079 5.293596 18.044121 -0.985892 4.349259 3.052752 -0.089210 -0.354010 -0.008080 18.230461 -10.040004 3.365302 -15.865797 1.341478 -37.431109 2.526712 -4.123068 12.835334 0.201918 -2.393308 3.416971 0.016170 0.599510 0.171250 -3.728710 -2.900015 -7.857557 10.963220 -6.738190 17.095898 -5.964208 -4.885638 6.758040 2.736500 -0.347603 -10.240004 -2.112543 6.319052 30.802781 -4.112450 8.043610 -6.821550 -5.423458 -12.015975 4.285359 -51.266671 -17.770469 -2.418990 -3.629537 -36.882680 -1.875937 -4.077355 2.768453 0.490100 0.396460 -0.252050 -0.006800 -0.072424 10.224326 5.500775 74.369793 12.936996 -9.162129 14.100751 35.996022 -0.135108 1.906329 -1.414475 -0.537670 0.420660 0.406750 -0.250320 
0.780290 16.568230 -1.190150 -9.361101 12.716393 2.926984 -15.205641 13.146731 3.086332 14.197206 -3.834836 -23.174522 -5.508506 5.512289 14.592211 -0.910572 4.369927 3.089223 -0.156960 -0.418290 -0.072160 18.241438 -10.007054 3.314507 -15.865436 1.803787 -37.278734 3.012340 -4.295006 13.782503 0.244426 -2.530656 3.421964 -0.023780 0.692490 0.170550 -3.669114 -2.611003 -7.885571 9.918272 -5.326739 14.774795 -3.551726 -4.172584 5.030555 1.952312 1.250923 -9.832942 1.052357 6.132148 29.493488 -3.975110 9.618350 -3.669770 -2.450057 -8.618218 4.167574 -49.677240 -15.518561 -2.142394 -16.298389 -42.917003 3.043093 -4.121516 2.951681 0.403410 0.483480 -0.325280 0.025550 -1.357717 5.966426 4.395155 74.902652 11.332312 -7.248224 15.844009 30.382116 0.368247 1.932739 -1.437733 -0.551880 0.403240 0.401810 -0.224360 
0.677460 16.590870 -1.145420 -10.233341 11.448367 5.135980 -15.266349 12.865120 3.286102 16.325654 -3.976711 -24.397124 -7.240832 5.673895 12.396698 -0.858495 4.527980 3.057826 -0.244590 -0.510230 -0.159330 18.224554 -9.911698 3.221540 -15.821118 2.229343 -36.472949 3.884585 -4.339694 13.400528 0.309536 -2.634261 3.423842 -0.060050 0.808700 0.192350 -3.505892 -2.422191 -7.840414 7.589599 -4.018132 11.675721 0.372831 -3.778625 4.079162 0.838201 2.846170 -9.394604 4.059823 6.014875 28.156877 -3.762590 10.881650 -0.330060 0.677607 -5.719589 4.365916 -48.929389 -13.443627 -0.892551 -31.586148 -47.918364 10.490379 -4.191848 3.199709 0.309200 0.594550 -0.419810 0.037860 -1.984567 2.065574 3.020025 74.366943 10.653380 -5.072612 15.327688 24.566883 0.264777 1.956249 -1.424791 -0.574490 0.380180 0.438670 -0.201030 
0.567600 16.579030 -1.096240 -10.661850 10.724915 7.821247 -15.344079 12.551035 3.487801 17.845674 -4.333316 -26.290212 -8.521338 5.715451 10.770987 -0.800612 4.711885 3.049378 -0.329920 -0.597010 -0.283370 18.216285 -9.735104 3.111946 -16.192633 2.405577 -35.358459 5.035506 -4.181052 11.423368 0.398476 -2.759600 3.414151 -0.069410 0.998620 0.236980 -3.337024 -2.336455 -7.697258 4.575279 -3.253708 8.058260 4.102912 -3.807625 2.807438 -0.569555 4.133869 -8.671044 6.385758 5.845246 25.567991 -2.797710 11.085700 4.145900 6.494366 -1.816880 4.382914 -50.526959 -13.337516 2.534955 -46.251442 -48.061424 17.918046 -4.259614 3.528510 0.144410 0.757440 -0.565190 0.081610 -4.647464 -3.062129 1.251881 77.514756 9.909163 -2.962199 11.477754 17.132507 -0.647666 1.984432 -1.459084 -0.594160 0.362650 0.479900 -0.139620 
0.463960 16.573870 -1.046270 -11.746274 9.471288 9.551030 -15.444932 12.428140 3.594131 19.570581 -4.290849 -27.201851 -8.742866 5.641502 9.331144 -0.869671 4.878048 3.007920 -0.317520 -0.563540 -0.300920 18.187641 -9.531659 2.888211 -15.151131 2.831115 -33.547971 5.267280 -3.829579 10.031003 0.448572 -2.731181 3.450411 0.015420 1.090610 0.217900 -3.107727 -2.626154 -7.381239 1.864354 -2.480250 4.179272 8.851684 -3.795666 4.049902 -2.253845 4.420685 -7.584426 6.745780 6.377276 23.591706 -2.660170 11.310390 4.041640 6.866748 -0.192973 4.097483 -43.209614 -12.741752 4.997988 -65.503715 -48.672058 28.769599 -4.308712 3.665170 0.089900 0.839210 -0.644860 0.098170 -1.202075 -4.944158 -0.322835 71.761746 9.393306 -2.167431 10.940812 13.778384 -0.749608 1.998076 -1.406182 -0.654010 0.427690 0.496660 -0.141130 
